<svg id="Laag_1" data-name="Laag 1" xmlns="http://www.w3.org/2000/svg" viewBox="0 0 738.43 145.79"><defs><style>.cls-1{fill:#312783;}</style></defs><path d="M88.51,64.27q5,6.48,4.95,15.94,0,13.4-10.41,20.6T52.7,108H0V6.11H49.79q18.63,0,28.6,7.14a22.57,22.57,0,0,1,10,19.36A24.5,24.5,0,0,1,74.83,55,26.9,26.9,0,0,1,88.51,64.27ZM23.44,23.87v24H46.88q8.73,0,13.24-3.06a10.21,10.21,0,0,0,4.52-9q0-6-4.52-9t-13.24-3ZM65,87.2q4.73-3.06,4.73-9.46,0-12.67-18.78-12.67H23.44V90.26H51Q60.26,90.26,65,87.2Z"/><path d="M124.83,104a38.51,38.51,0,0,1-15.36-14.34,39.52,39.52,0,0,1-5.53-20.82A39.47,39.47,0,0,1,109.47,48,38.51,38.51,0,0,1,124.83,33.7,47,47,0,0,1,147,28.53a46.6,46.6,0,0,1,22.13,5.17A38.64,38.64,0,0,1,184.45,48,39.57,39.57,0,0,1,190,68.86a39.62,39.62,0,0,1-5.53,20.82A38.64,38.64,0,0,1,169.16,104,46.59,46.59,0,0,1,147,109.18,47,47,0,0,1,124.83,104Zm36.54-19.37Q167,78.76,167,68.86t-5.61-15.8A18.89,18.89,0,0,0,147,47.17a19.15,19.15,0,0,0-14.41,5.89Q127,59,126.94,68.86t5.68,15.79A19.16,19.16,0,0,0,147,90.55,18.9,18.9,0,0,0,161.37,84.65Z"/><path d="M188.11,104a38.51,38.51,0,0,1-15.36-14.34,39.52,39.52,0,0,1-5.53-20.82A39.47,39.47,0,0,1,172.75,48,38.51,38.51,0,0,1,188.11,33.7a50.1,50.1,0,0,1,44.33,0A38.64,38.64,0,0,1,247.73,48a39.57,39.57,0,0,1,5.53,20.82,39.62,39.62,0,0,1-5.53,20.82A38.64,38.64,0,0,1,232.44,104a50.19,50.19,0,0,1-44.33,0Zm36.54-19.37q5.61-5.9,5.61-15.79t-5.61-15.8a18.89,18.89,0,0,0-14.34-5.89,19.15,19.15,0,0,0-14.41,5.89q-5.67,5.89-5.68,15.8t5.68,15.79a19.16,19.16,0,0,0,14.41,5.9A18.9,18.9,0,0,0,224.65,84.65Z"/><path d="M392.07,37.2q8.65,8.65,8.66,26V108H378V66.67q0-9.31-3.86-13.9t-11-4.58q-8,0-12.67,5.16t-4.65,15.36V108H323.14V66.67q0-18.48-14.85-18.48-7.86,0-12.52,5.16t-4.66,15.36V108H268.4V29.7h21.69v9a28.81,28.81,0,0,1,10.7-7.57,36.11,36.11,0,0,1,13.9-2.62,33.77,33.77,0,0,1,15,3.28,26.58,26.58,0,0,1,10.77,9.53,32.18,32.18,0,0,1,12.16-9.46,38.36,38.36,0,0,1,16.08-3.35Q383.4,28.53,392.07,37.2Z"/><path d="M487.27,33.56a36,36,0,0,1,14.05,14.12,42.57,42.57,0,0,1,5.1,21.18A42.57,42.57,0,0,1,501.32,90a36.06,36.06,0,0,1-14.05,14.12,39.86,39.86,0,0,1-19.87,5q-16.15,0-24.6-10.19v9H421.11V0h22.71V38q8.58-9.46,23.58-9.47A39.87,39.87,0,0,1,487.27,33.56Zm-9.46,51.09q5.61-5.9,5.61-15.79t-5.61-15.8a20.4,20.4,0,0,0-28.68,0q-5.6,5.89-5.6,15.8t5.6,15.79a20.38,20.38,0,0,0,28.68,0Z"/><path d="M579.79,37.2q9.75,8.65,9.75,26.13V108H568.29V98.27q-6.4,10.91-23.88,10.91a37.19,37.19,0,0,1-15.65-3.05,23.38,23.38,0,0,1-10.11-8.45,22,22,0,0,1-3.5-12.23q0-10.9,8.23-17.17T548.78,62h18.05q0-7.43-4.51-11.43t-13.54-4a39.56,39.56,0,0,0-12.3,2,32.49,32.49,0,0,0-10.26,5.31L518.06,38a49.15,49.15,0,0,1,15.36-7,68.83,68.83,0,0,1,18.42-2.48Q570,28.53,579.79,37.2Zm-19.36,54a14.74,14.74,0,0,0,6.4-7.93v-8H551.26q-14,0-14,9.18a8.16,8.16,0,0,0,3.42,6.91q3.42,2.55,9.39,2.55A19.76,19.76,0,0,0,560.43,91.2Z"/><path class="cls-1" d="M699.48,145.79,664.29,95.18l-34.58,50.61H591l53.95-74.15L593.68,0H632l33.54,47.28L698.44,0h36.45L684.07,70.4l54.36,75.39Z"/></svg>